<svg width="1024" height="1024" viewBox="0 0 32 32" xmlns="http://www.w3.org/2000/svg">
  <!-- GraphCAD Logo - Three Isometric Hexagonal Cubes -->
  <!-- Base size: 1024x1024 for Tauri icon generation -->
  <!-- Logo bounds: ~25x25, centered in 32x32 viewBox -->
  
  <!-- Top hexagon/cube (center of composition) -->
  <g transform="translate(16, 11.25)">
    <path 
      d="M 0 -8 L 6.93 -4 L 6.93 4 L 0 8 L -6.93 4 L -6.93 -4 Z" 
      fill="none" 
      stroke="currentColor" 
      stroke-width="0.7" 
      stroke-linejoin="round"
    />
    <path 
      d="M 0 0 L 0 8 M 0 0 L 6.93 -4 M 0 0 L -6.93 -4" 
      fill="none" 
      stroke="currentColor" 
      stroke-width="0.4" 
      opacity="0.6"
    />
  </g>
  
  <!-- Bottom-left hexagon/cube -->
  <g transform="translate(10.5, 20.75)">
    <path 
      d="M 0 -8 L 6.93 -4 L 6.93 4 L 0 8 L -6.93 4 L -6.93 -4 Z" 
      fill="none" 
      stroke="currentColor" 
      stroke-width="0.7" 
      stroke-linejoin="round"
    />
    <path 
      d="M 0 0 L 0 8 M 0 0 L 6.93 -4 M 0 0 L -6.93 -4" 
      fill="none" 
      stroke="currentColor" 
      stroke-width="0.4" 
      opacity="0.6"
    />
  </g>
  
  <!-- Bottom-right hexagon/cube -->
  <g transform="translate(21.5, 20.75)">
    <path 
      d="M 0 -8 L 6.93 -4 L 6.93 4 L 0 8 L -6.93 4 L -6.93 -4 Z" 
      fill="none" 
      stroke="currentColor" 
      stroke-width="0.7" 
      stroke-linejoin="round"
    />
    <path 
      d="M 0 0 L 0 8 M 0 0 L 6.93 -4 M 0 0 L -6.93 -4" 
      fill="none" 
      stroke="currentColor" 
      stroke-width="0.4" 
      opacity="0.6"
    />
  </g>
</svg>
